<svg width="175" height="175" viewBox="0 0 175 175" fill="none" xmlns="http://www.w3.org/2000/svg">
<mask id="path-2-outside-1_0_1" maskUnits="userSpaceOnUse" x="25" y="18" width="61" height="72" fill="black">
<rect fill="white" x="25" y="18" width="61" height="72"/>
<path d="M30.7812 88C28.5938 88 27.5 86.8281 27.5 84.4844V24.2969C27.5 21.9531 28.5938 20.7812 30.7812 20.7812H47.1406C61.5156 20.7812 71.2344 23.6875 76.2969 29.5C81.3906 35.3125 83.9375 43.5781 83.9375 54.2969C83.9375 65.0156 81.3906 73.3125 76.2969 79.1875C71.2344 85.0625 61.5156 88 47.1406 88H30.7812ZM41.1875 76.375H46.25C55.9375 76.375 62.2031 74.5781 65.0469 70.9844C67.8906 67.3594 69.3125 61.7969 69.3125 54.2969C69.3125 46.7969 67.8906 41.2656 65.0469 37.7031C62.2031 34.1094 55.9375 32.3125 46.25 32.3125H41.1875V76.375Z"/>
</mask>
<path d="M30.7812 88C28.5938 88 27.5 86.8281 27.5 84.4844V24.2969C27.5 21.9531 28.5938 20.7812 30.7812 20.7812H47.1406C61.5156 20.7812 71.2344 23.6875 76.2969 29.5C81.3906 35.3125 83.9375 43.5781 83.9375 54.2969C83.9375 65.0156 81.3906 73.3125 76.2969 79.1875C71.2344 85.0625 61.5156 88 47.1406 88H30.7812ZM41.1875 76.375H46.25C55.9375 76.375 62.2031 74.5781 65.0469 70.9844C67.8906 67.3594 69.3125 61.7969 69.3125 54.2969C69.3125 46.7969 67.8906 41.2656 65.0469 37.7031C62.2031 34.1094 55.9375 32.3125 46.25 32.3125H41.1875V76.375Z" fill="#001FC1"/>
<path d="M76.2969 29.5L74.7887 30.8136L74.7927 30.8182L76.2969 29.5ZM76.2969 79.1875L74.7858 77.8773L74.7818 77.8819L76.2969 79.1875ZM41.1875 76.375H39.1875V78.375H41.1875V76.375ZM65.0469 70.9844L66.6153 72.2254L66.6205 72.2188L65.0469 70.9844ZM65.0469 37.7031L63.4785 38.9442L63.4838 38.9508L65.0469 37.7031ZM41.1875 32.3125V30.3125H39.1875V32.3125H41.1875ZM30.7812 86C30.0325 86 29.8286 85.806 29.7824 85.7565C29.712 85.681 29.5 85.381 29.5 84.4844H25.5C25.5 85.9315 25.8349 87.3893 26.8582 88.4857C27.9058 89.6081 29.3425 90 30.7812 90V86ZM29.5 84.4844V24.2969H25.5V84.4844H29.5ZM29.5 24.2969C29.5 23.4003 29.712 23.1003 29.7824 23.0248C29.8286 22.9753 30.0325 22.7812 30.7812 22.7812V18.7812C29.3425 18.7812 27.9058 19.1731 26.8582 20.2955C25.8349 21.3919 25.5 22.8497 25.5 24.2969H29.5ZM30.7812 22.7812H47.1406V18.7812H30.7812V22.7812ZM47.1406 22.7812C61.3961 22.7812 70.3286 25.6927 74.7887 30.8136L77.805 28.1864C72.1401 21.6823 61.6352 18.7812 47.1406 18.7812V22.7812ZM74.7927 30.8182C79.4618 36.1461 81.9375 43.8757 81.9375 54.2969H85.9375C85.9375 43.2806 83.3194 34.4789 77.801 28.1818L74.7927 30.8182ZM81.9375 54.2969C81.9375 64.7164 79.4625 72.4833 74.7858 77.8773L77.808 80.4977C83.3188 74.1417 85.9375 65.3148 85.9375 54.2969H81.9375ZM74.7818 77.8819C70.3206 83.0591 61.3914 86 47.1406 86V90C61.6399 90 72.1482 87.0659 77.812 80.4931L74.7818 77.8819ZM47.1406 86H30.7812V90H47.1406V86ZM41.1875 78.375H46.25V74.375H41.1875V78.375ZM46.25 78.375C51.199 78.375 55.3899 77.9181 58.7662 76.9498C62.1371 75.9831 64.8451 74.4624 66.6152 72.2254L63.4785 69.7433C62.4049 71.1001 60.5582 72.2747 57.6635 73.1048C54.7741 73.9335 50.9885 74.375 46.25 74.375V78.375ZM66.6205 72.2188C69.8666 68.0808 71.3125 61.9848 71.3125 54.2969H67.3125C67.3125 61.609 65.9146 66.6379 63.4733 69.7499L66.6205 72.2188ZM71.3125 54.2969C71.3125 46.6132 69.8683 40.5373 66.6099 36.4554L63.4838 38.9508C65.9129 41.9939 67.3125 46.9805 67.3125 54.2969H71.3125ZM66.6152 36.4621C64.8451 34.2251 62.1371 32.7044 58.7662 31.7377C55.3899 30.7694 51.199 30.3125 46.25 30.3125V34.3125C50.9885 34.3125 54.7741 34.754 57.6635 35.5827C60.5582 36.4128 62.4049 37.5874 63.4785 38.9442L66.6152 36.4621ZM46.25 30.3125H41.1875V34.3125H46.25V30.3125ZM39.1875 32.3125V76.375H43.1875V32.3125H39.1875Z" fill="black" mask="url(#path-2-outside-1_0_1)"/>
<path d="M69.625 137.719C68.1562 137.156 67.7656 136 68.4531 134.25L99.5781 53.1562C100.266 51.4062 101.328 50.8125 102.766 51.375L106.562 52.8281C108.031 53.3906 108.422 54.5469 107.734 56.2969L76.6094 137.391C75.9219 139.141 74.8594 139.734 73.4219 139.172L69.625 137.719Z" fill="black"/>
<mask id="path-5-outside-2_0_1" maskUnits="userSpaceOnUse" x="92" y="92" width="57" height="75" fill="black">
<rect fill="white" x="92" y="92" width="57" height="75"/>
<path d="M96.2969 157.984C94.3594 156.516 93.8906 155.031 94.8906 153.531L98.5 148.094C99.6875 146.312 101.422 146.219 103.703 147.812C105.453 149.031 107.734 150.297 110.547 151.609C113.391 152.891 116.375 153.531 119.5 153.531C121.688 153.531 123.797 153.281 125.828 152.781C127.859 152.281 129.406 151.312 130.469 149.875C131.531 148.438 132.062 146.734 132.062 144.766C132.062 143.359 131.828 142.125 131.359 141.062C130.891 140 130.125 139.125 129.062 138.438C128 137.75 126.906 137.172 125.781 136.703C123.812 135.891 121.328 135.094 118.328 134.312C115.359 133.5 112.422 132.531 109.516 131.406C106.922 130.406 104.547 129.031 102.391 127.281C100.234 125.531 98.5625 123.562 97.375 121.375C96.1875 119.188 95.5938 116.266 95.5938 112.609C95.5938 108.266 97 104.547 99.8125 101.453C102.625 98.3594 105.859 96.375 109.516 95.5C113.172 94.625 116.859 94.1875 120.578 94.1875C124.266 94.1875 128.062 94.75 131.969 95.875C135.906 97 138.875 98.4062 140.875 100.094C142.844 101.75 143.328 103.25 142.328 104.594L138.531 109.703C137.25 111.453 135.531 111.594 133.375 110.125C132 109.188 130.109 108.141 127.703 106.984C125.328 105.828 122.844 105.25 120.25 105.25C118.406 105.25 116.703 105.406 115.141 105.719C113.609 106.031 112.25 106.781 111.062 107.969C109.875 109.156 109.281 110.625 109.281 112.375C109.281 114.062 109.719 115.438 110.594 116.5C111.469 117.531 112.438 118.312 113.5 118.844C114.562 119.344 115.641 119.766 116.734 120.109C120.109 121.203 123.125 122.172 125.781 123.016C128.438 123.828 130.891 124.734 133.141 125.734C136.266 127.141 138.656 128.547 140.312 129.953C141.969 131.359 143.328 133.281 144.391 135.719C145.484 138.156 146.031 141.062 146.031 144.438C146.031 149.438 144.438 153.578 141.25 156.859C138.062 160.109 134.516 162.203 130.609 163.141C126.734 164.109 122.953 164.594 119.266 164.594C113.828 164.594 109.406 164.062 106 163C102.594 161.969 99.3594 160.297 96.2969 157.984Z"/>
</mask>
<path d="M96.2969 157.984C94.3594 156.516 93.8906 155.031 94.8906 153.531L98.5 148.094C99.6875 146.312 101.422 146.219 103.703 147.812C105.453 149.031 107.734 150.297 110.547 151.609C113.391 152.891 116.375 153.531 119.5 153.531C121.688 153.531 123.797 153.281 125.828 152.781C127.859 152.281 129.406 151.312 130.469 149.875C131.531 148.438 132.062 146.734 132.062 144.766C132.062 143.359 131.828 142.125 131.359 141.062C130.891 140 130.125 139.125 129.062 138.438C128 137.75 126.906 137.172 125.781 136.703C123.812 135.891 121.328 135.094 118.328 134.312C115.359 133.5 112.422 132.531 109.516 131.406C106.922 130.406 104.547 129.031 102.391 127.281C100.234 125.531 98.5625 123.562 97.375 121.375C96.1875 119.188 95.5938 116.266 95.5938 112.609C95.5938 108.266 97 104.547 99.8125 101.453C102.625 98.3594 105.859 96.375 109.516 95.5C113.172 94.625 116.859 94.1875 120.578 94.1875C124.266 94.1875 128.062 94.75 131.969 95.875C135.906 97 138.875 98.4062 140.875 100.094C142.844 101.75 143.328 103.25 142.328 104.594L138.531 109.703C137.25 111.453 135.531 111.594 133.375 110.125C132 109.188 130.109 108.141 127.703 106.984C125.328 105.828 122.844 105.25 120.25 105.25C118.406 105.25 116.703 105.406 115.141 105.719C113.609 106.031 112.25 106.781 111.062 107.969C109.875 109.156 109.281 110.625 109.281 112.375C109.281 114.062 109.719 115.438 110.594 116.5C111.469 117.531 112.438 118.312 113.5 118.844C114.562 119.344 115.641 119.766 116.734 120.109C120.109 121.203 123.125 122.172 125.781 123.016C128.438 123.828 130.891 124.734 133.141 125.734C136.266 127.141 138.656 128.547 140.312 129.953C141.969 131.359 143.328 133.281 144.391 135.719C145.484 138.156 146.031 141.062 146.031 144.438C146.031 149.438 144.438 153.578 141.25 156.859C138.062 160.109 134.516 162.203 130.609 163.141C126.734 164.109 122.953 164.594 119.266 164.594C113.828 164.594 109.406 164.062 106 163C102.594 161.969 99.3594 160.297 96.2969 157.984Z" fill="#FF4500"/>
<path d="M96.2969 157.984L95.0887 159.578L95.0917 159.58L96.2969 157.984ZM94.8906 153.531L96.5547 154.641L96.5569 154.637L94.8906 153.531ZM98.5 148.094L96.8359 146.984L96.8337 146.988L98.5 148.094ZM103.703 147.812L102.558 149.452L102.56 149.454L103.703 147.812ZM110.547 151.609L109.701 153.422L109.713 153.427L109.725 153.433L110.547 151.609ZM125.781 136.703L126.55 134.857L126.544 134.854L125.781 136.703ZM118.328 134.312L117.8 136.242L117.812 136.245L117.824 136.248L118.328 134.312ZM109.516 131.406L110.238 129.541L110.235 129.54L109.516 131.406ZM131.969 95.875L131.415 97.7969L131.419 97.798L131.969 95.875ZM140.875 100.094L139.585 101.622L139.587 101.624L140.875 100.094ZM142.328 104.594L140.724 103.4L140.723 103.401L142.328 104.594ZM138.531 109.703L136.926 108.51L136.922 108.516L136.918 108.522L138.531 109.703ZM133.375 110.125L132.248 111.777L132.249 111.778L133.375 110.125ZM127.703 106.984L126.828 108.783L126.837 108.787L127.703 106.984ZM115.141 105.719L114.748 103.758L114.741 103.759L115.141 105.719ZM110.594 116.5L109.05 117.771L109.059 117.783L109.069 117.794L110.594 116.5ZM113.5 118.844L112.606 120.633L112.627 120.643L112.648 120.653L113.5 118.844ZM116.734 120.109L117.351 118.207L117.343 118.204L117.334 118.201L116.734 120.109ZM125.781 123.016L125.176 124.922L125.186 124.925L125.196 124.928L125.781 123.016ZM133.141 125.734L133.961 123.911L133.953 123.907L133.141 125.734ZM144.391 135.719L142.557 136.518L142.562 136.528L142.566 136.538L144.391 135.719ZM141.25 156.859L142.678 158.26L142.685 158.253L141.25 156.859ZM130.609 163.141L130.143 161.196L130.133 161.198L130.124 161.2L130.609 163.141ZM106 163L106.596 161.091L106.588 161.088L106.58 161.086L106 163ZM97.5051 156.391C96.6941 155.776 96.4568 155.349 96.3994 155.167C96.3767 155.095 96.3768 155.05 96.3851 155.004C96.3949 154.948 96.4291 154.829 96.5547 154.641L93.2265 152.422C92.45 153.587 92.138 154.956 92.585 156.372C92.9964 157.674 93.9622 158.724 95.0887 159.578L97.5051 156.391ZM96.5569 154.637L100.166 149.2L96.8337 146.988L93.2243 152.425L96.5569 154.637ZM100.164 149.203C100.499 148.701 100.709 148.689 100.799 148.685C101.022 148.673 101.578 148.768 102.558 149.452L104.849 146.173C103.547 145.264 102.095 144.609 100.583 144.69C98.9395 144.779 97.6887 145.705 96.8359 146.984L100.164 149.203ZM102.56 149.454C104.436 150.76 106.827 152.081 109.701 153.422L111.393 149.797C108.642 148.513 106.47 147.302 104.846 146.171L102.56 149.454ZM109.725 153.433C112.828 154.831 116.092 155.531 119.5 155.531V151.531C116.658 151.531 113.953 150.951 111.368 149.786L109.725 153.433ZM119.5 155.531C121.841 155.531 124.111 155.264 126.306 154.723L125.35 150.839C123.482 151.299 121.534 151.531 119.5 151.531V155.531ZM126.306 154.723C128.71 154.132 130.691 152.939 132.077 151.064L128.86 148.686C128.121 149.686 127.009 150.431 125.35 150.839L126.306 154.723ZM132.077 151.064C133.42 149.247 134.062 147.117 134.062 144.766H130.062C130.062 146.352 129.643 147.628 128.86 148.686L132.077 151.064ZM134.062 144.766C134.062 143.139 133.791 141.62 133.189 140.255L129.53 141.87C129.865 142.63 130.062 143.58 130.062 144.766H134.062ZM133.189 140.255C132.549 138.804 131.508 137.638 130.149 136.758L127.976 140.117C128.742 140.612 129.232 141.196 129.53 141.87L133.189 140.255ZM130.149 136.758C128.99 136.008 127.79 135.374 126.55 134.857L125.012 138.549C126.022 138.97 127.01 139.492 127.976 140.117L130.149 136.758ZM126.544 134.854C124.463 133.995 121.884 133.172 118.832 132.377L117.824 136.248C120.772 137.016 123.162 137.786 125.018 138.552L126.544 134.854ZM118.856 132.383C115.954 131.589 113.081 130.642 110.238 129.541L108.794 133.271C111.763 134.421 114.765 135.411 117.8 136.242L118.856 132.383ZM110.235 129.54C107.837 128.615 105.644 127.346 103.651 125.728L101.13 128.834C103.449 130.716 106.007 132.197 108.796 133.272L110.235 129.54ZM103.651 125.728C101.675 124.124 100.182 122.353 99.1327 120.421L95.6173 122.329C96.9435 124.772 98.7942 126.938 101.13 128.834L103.651 125.728ZM99.1327 120.421C98.1614 118.632 97.5938 116.077 97.5938 112.609H93.5938C93.5938 116.454 94.2136 119.743 95.6173 122.329L99.1327 120.421ZM97.5938 112.609C97.5938 108.742 98.8286 105.509 101.292 102.798L98.3326 100.108C95.1714 103.585 93.5938 107.789 93.5938 112.609H97.5938ZM101.292 102.798C103.866 99.9673 106.759 98.2162 109.981 97.4451L109.05 93.5549C104.96 94.5338 101.384 96.7515 98.3326 100.108L101.292 102.798ZM109.981 97.4451C113.487 96.6062 117.018 96.1875 120.578 96.1875V92.1875C116.701 92.1875 112.857 92.6438 109.05 93.5549L109.981 97.4451ZM120.578 96.1875C124.06 96.1875 127.671 96.7185 131.415 97.7969L132.522 93.9531C128.454 92.7815 124.471 92.1875 120.578 92.1875V96.1875ZM131.419 97.798C135.222 98.8846 137.889 100.191 139.585 101.622L142.165 98.5652C139.861 96.6215 136.59 95.1154 132.518 93.952L131.419 97.798ZM139.587 101.624C140.448 102.348 140.736 102.842 140.812 103.076C140.841 103.166 140.832 103.197 140.832 103.2C140.831 103.207 140.819 103.272 140.724 103.4L143.933 105.788C144.79 104.635 145.073 103.256 144.618 101.846C144.209 100.58 143.27 99.4954 142.163 98.5633L139.587 101.624ZM140.723 103.401L136.926 108.51L140.137 110.896L143.933 105.787L140.723 103.401ZM136.918 108.522C136.524 109.059 136.256 109.117 136.118 109.128C135.897 109.146 135.386 109.075 134.501 108.472L132.249 111.778C133.52 112.644 134.947 113.237 136.444 113.114C138.026 112.985 139.257 112.098 140.145 110.885L136.918 108.522ZM134.502 108.473C133.01 107.455 131.019 106.359 128.569 105.182L126.837 108.787C129.2 109.922 130.99 110.92 132.248 111.777L134.502 108.473ZM128.579 105.186C125.936 103.9 123.153 103.25 120.25 103.25V107.25C122.535 107.25 124.72 107.757 126.828 108.783L128.579 105.186ZM120.25 103.25C118.295 103.25 116.458 103.416 114.748 103.758L115.533 107.68C116.948 107.397 118.518 107.25 120.25 107.25V103.25ZM114.741 103.759C112.796 104.156 111.091 105.111 109.648 106.555L112.477 109.383C113.409 108.451 114.423 107.907 115.541 107.678L114.741 103.759ZM109.648 106.555C108.068 108.134 107.281 110.119 107.281 112.375H111.281C111.281 111.131 111.682 110.178 112.477 109.383L109.648 106.555ZM107.281 112.375C107.281 114.418 107.818 116.275 109.05 117.771L112.138 115.229C111.62 114.6 111.281 113.707 111.281 112.375H107.281ZM109.069 117.794C110.094 119.003 111.27 119.965 112.606 120.633L114.394 117.055C113.605 116.66 112.843 116.06 112.119 115.206L109.069 117.794ZM112.648 120.653C113.791 121.191 114.953 121.646 116.135 122.017L117.334 118.201C116.328 117.885 115.334 117.497 114.352 117.034L112.648 120.653ZM116.118 122.012C119.496 123.107 122.515 124.077 125.176 124.922L126.387 121.109C123.735 120.267 120.723 119.3 117.351 118.207L116.118 122.012ZM125.196 124.928C127.785 125.72 130.161 126.599 132.328 127.562L133.953 123.907C131.62 122.87 129.09 121.936 126.366 121.103L125.196 124.928ZM132.32 127.558C135.36 128.926 137.563 130.242 139.018 131.478L141.607 128.429C139.75 126.852 137.171 125.355 133.961 123.911L132.32 127.558ZM139.018 131.478C140.395 132.647 141.59 134.299 142.557 136.518L146.224 134.92C145.066 132.264 143.542 130.072 141.607 128.429L139.018 131.478ZM142.566 136.538C143.518 138.659 144.031 141.273 144.031 144.438H148.031C148.031 140.852 147.451 137.653 146.215 134.9L142.566 136.538ZM144.031 144.438C144.031 148.97 142.605 152.594 139.815 155.466L142.685 158.253C146.27 154.562 148.031 149.905 148.031 144.438H144.031ZM139.822 155.459C136.862 158.478 133.637 160.357 130.143 161.196L131.076 165.085C135.394 164.049 139.263 161.741 142.678 158.26L139.822 155.459ZM130.124 161.2C126.395 162.133 122.777 162.594 119.266 162.594V166.594C123.13 166.594 127.074 166.086 131.094 165.081L130.124 161.2ZM119.266 162.594C113.936 162.594 109.736 162.07 106.596 161.091L105.404 164.909C109.076 166.055 113.72 166.594 119.266 166.594V162.594ZM106.58 161.086C103.416 160.128 100.391 158.57 97.5021 156.388L95.0917 159.58C98.3276 162.024 101.771 163.809 105.42 164.914L106.58 161.086Z" fill="black" mask="url(#path-5-outside-2_0_1)"/>
</svg>
